<svg id="Layer_1" data-name="Layer 1" xmlns="http://www.w3.org/2000/svg" xmlns:xlink="http://www.w3.org/1999/xlink" viewBox="0 0 24 24">
  <defs>
    <style>.cls-1{fill:#5e438f;}.cls-2{opacity:0.1;isolation:isolate;}.cls-3{fill:url(#linear-gradient);}.cls-4{fill:url(#linear-gradient-2);}.cls-5{fill:#c18ef1;}</style>
    <linearGradient id="linear-gradient" x1="3.612" y1="-15.352" x2="19.575" y2="1.369" gradientTransform="matrix(1, 0, 0, -1, 0, 4)" gradientUnits="userSpaceOnUse">
      <stop offset="0" stop-color="#7252aa"/>
      <stop offset="1" stop-color="#7252aa"/>
    </linearGradient>
    <linearGradient id="linear-gradient-2" x1="8.844" y1="38.679" x2="13.871" y2="33.216" gradientTransform="translate(0 -22)" gradientUnits="userSpaceOnUse">
      <stop offset="0" stop-color="#ae7fe2"/>
      <stop offset="1" stop-color="#9a70d4"/>
    </linearGradient>
  </defs>
  <path class="cls-1" d="M4.4,20.3l-4-3a.911.911,0,0,1-.4-.8v-9a.911.911,0,0,1,.4-.8l4-3a.911.911,0,0,0-.4.8v15A.911.911,0,0,0,4.4,20.3Z"/>
  <path class="cls-2" d="M1.1,17.2a.517.517,0,0,1-.4.2.366.366,0,0,1-.3-.1h0l4,3a.911.911,0,0,1-.4-.8V13.8Z"/>
  <path class="cls-2" d="M.4,6.7h0a.5.5,0,0,1,.693.09L1.1,6.8,4,10.2V4.5a.911.911,0,0,1,.4-.8Z"/>
  <path class="cls-3" d="M23.6,4.2A1.423,1.423,0,0,0,23,4a.908.908,0,0,0-.7.3l-.1.1L18,8.4,14.3,12,9.9,16.2,5.8,20.1l-.1.1a.908.908,0,0,1-.7.3,1.423,1.423,0,0,1-.6-.2l-4-3a1.071,1.071,0,0,0,1.4-.1L4,14.6,6.2,12,9.8,7.8,16.2.4A.911.911,0,0,1,17,0a1.423,1.423,0,0,1,.6.2Z"/>
  <polygon class="cls-2" points="10.2 7.4 9.8 7.8 6.2 12 5.9 12.4 9.5 16.6 9.5 16.6 9.8 16.2 14.3 12 14.6 11.7 10.2 7.4"/>
  <path class="cls-4" d="M23.6,19.8l-6,4c-.1,0-.2.1-.3.1h0a.9.9,0,0,1-1-.3L9.9,16.2,6.2,12,4,9.4,1.8,6.8A1.208,1.208,0,0,0,.4,6.7l4-3A1.423,1.423,0,0,1,5,3.5a.908.908,0,0,1,.7.3l.1.1L9.9,7.8,14.3,12l3.2,3.1.5.5,4.2,4.1.1.1a.908.908,0,0,0,.7.3Z"/>
  <path class="cls-2" d="M23.6,19.8l-6,4c-.1,0-.2.1-.3.1a.762.762,0,0,0,.2-.4V15.1l.5.5,4.2,4.1.1.1a.908.908,0,0,0,.7.3Z"/>
  <path class="cls-2" d="M17.5.2a.366.366,0,0,0-.3-.1.517.517,0,0,1,.2.4V8.9l.6-.5,4.2-4.1.1-.1A1.448,1.448,0,0,1,23,4a1.423,1.423,0,0,1,.6.2Z"/>
  <path class="cls-5" d="M24,5V19a1,1,0,0,1-.445.835l-6,4A1,1,0,0,0,18,23V1a1.01,1.01,0,0,0-.46-.835l6.015,4A1.009,1.009,0,0,1,24,5Z"/>
</svg>